<svg width="154" height="43" viewBox="0 0 154 43" fill="none" xmlns="http://www.w3.org/2000/svg">
<path d="M5.15676 39.78C3.33673 39.78 2.02226 39.3289 1.21336 38.4266C0.404452 37.5244 0 36.0699 0 34.0632V32.1032H3.9434V34.5999C3.9434 35.5955 4.2623 36.0933 4.90009 36.0933C5.25787 36.0933 5.50677 35.9922 5.64677 35.7899C5.78677 35.5721 5.85677 35.2144 5.85677 34.7166C5.85677 34.0632 5.77899 33.5266 5.62344 33.1065C5.46788 32.671 5.26565 32.3132 5.01676 32.0332C4.78342 31.7376 4.35563 31.2865 3.7334 30.6798L2.0067 28.9531C0.668901 27.6464 0 26.1998 0 24.6131C0 22.9019 0.388896 21.603 1.16669 20.7163C1.96004 19.8141 3.11117 19.363 4.62008 19.363C6.42456 19.363 7.72347 19.8452 8.51682 20.8097C9.31017 21.7586 9.70684 23.2519 9.70684 25.2897H5.62344L5.6001 23.913C5.6001 23.6486 5.52232 23.4386 5.36676 23.283C5.22676 23.1275 5.02454 23.0497 4.76009 23.0497C4.44897 23.0497 4.21563 23.1353 4.06007 23.3064C3.90451 23.4775 3.82674 23.7108 3.82674 24.0064C3.82674 24.6597 4.20008 25.3364 4.94676 26.0364L7.28013 28.2765C7.82459 28.8054 8.2757 29.3109 8.63349 29.7932C8.99127 30.2598 9.27906 30.8198 9.49684 31.4732C9.71462 32.111 9.82351 32.8732 9.82351 33.7599C9.82351 35.7355 9.45795 37.2366 8.72682 38.2633C8.01126 39.2744 6.82123 39.78 5.15676 39.78Z" fill="#FF8400"/>
<path d="M11.0821 22.513H15.2355V23.423C15.8266 22.6919 16.6433 22.3264 17.6855 22.3264C19.0078 22.3264 19.9256 22.7697 20.4389 23.6564C20.9678 24.5431 21.2323 25.772 21.2323 27.3431V33.6666C21.2323 35.0044 21.1545 36.101 20.9989 36.9566C20.8434 37.7966 20.5011 38.4811 19.9722 39.01C19.4433 39.5233 18.6422 39.78 17.5689 39.78C16.5422 39.78 15.7644 39.4922 15.2355 38.9167V43.0001H11.0821V22.513ZM16.2155 36.6066C16.5888 36.6066 16.83 36.4355 16.9388 36.0933C17.0477 35.751 17.1022 35.2533 17.1022 34.5999V27.3431C17.1022 26.752 17.0477 26.3009 16.9388 25.9898C16.83 25.6786 16.5811 25.5231 16.1922 25.5231C15.5544 25.5231 15.2355 26.1142 15.2355 27.2964V34.7866C15.2355 35.3621 15.2977 35.8133 15.4222 36.1399C15.5622 36.451 15.8266 36.6066 16.2155 36.6066Z" fill="#FF8400"/>
<path d="M22.749 22.513H26.8324V24.4031C27.0346 23.7342 27.3846 23.2208 27.8824 22.863C28.3957 22.4897 29.0257 22.303 29.7724 22.303V25.7097C29.1968 25.7097 28.5591 25.7953 27.859 25.9664C27.1746 26.122 26.8324 26.3086 26.8324 26.5264V39.5933H22.749V22.513Z" fill="#FF8400"/>
<path d="M30.7466 21.3697V18.5229H34.83V21.3697H30.7466ZM30.7466 39.5933V22.513H34.83V39.5933H30.7466Z" fill="#FF8400"/>
<path d="M36.4439 22.513H40.5273V24.6831C40.6984 23.983 40.9939 23.4153 41.4139 22.9797C41.834 22.5441 42.394 22.3264 43.094 22.3264C44.2451 22.3264 45.0929 22.6841 45.6374 23.3997C46.1974 24.0997 46.4774 25.1031 46.4774 26.4098V39.5933H42.464V26.8298C42.464 26.4564 42.3862 26.1375 42.2306 25.8731C42.0906 25.6086 41.8651 25.4764 41.554 25.4764C41.1339 25.4764 40.8539 25.6709 40.7139 26.0598C40.5895 26.4331 40.5273 26.9387 40.5273 27.5764V39.5933H36.4439V22.513Z" fill="#FF8400"/>
<path d="M52.6847 42.09C51.4713 42.09 50.5147 41.9889 49.8146 41.7867C49.1302 41.6 48.4535 41.2345 47.7846 40.69L49.1846 38.3333C50.1802 38.9244 51.168 39.22 52.148 39.22C52.7858 39.22 53.268 39.0178 53.5947 38.6133C53.9214 38.2089 54.0847 37.6566 54.0847 36.9566V36.0233C53.7581 37.19 52.8947 37.7733 51.4947 37.7733C50.328 37.7733 49.4646 37.3766 48.9046 36.5833C48.3602 35.7899 48.0879 34.7321 48.0879 33.4099V26.9931C48.0879 25.4842 48.3368 24.3331 48.8346 23.5397C49.348 22.7308 50.2347 22.3264 51.4947 22.3264C52.2258 22.3264 52.8014 22.513 53.2214 22.8864C53.6569 23.2441 53.9447 23.7575 54.0847 24.4264V22.513H58.2615V36.6999C58.2615 38.6133 57.8181 39.99 56.9314 40.83C56.0448 41.67 54.6292 42.09 52.6847 42.09ZM53.128 34.6932C53.7658 34.6932 54.0847 34.1177 54.0847 32.9665V26.8764C54.0847 26.5342 53.9914 26.2075 53.8047 25.8964C53.618 25.5853 53.3847 25.4297 53.1047 25.4297C52.7469 25.4297 52.5058 25.562 52.3814 25.8264C52.2569 26.0753 52.1947 26.4253 52.1947 26.8764V32.9665C52.1947 33.4799 52.2569 33.8999 52.3814 34.2266C52.5058 34.5377 52.7547 34.6932 53.128 34.6932Z" fill="#FF8400"/>
<path d="M66.509 19.5498H72.6691C73.6491 19.5498 74.4036 19.7754 74.9325 20.2265C75.4769 20.662 75.8425 21.2843 76.0291 22.0932C76.2158 22.8865 76.3091 23.9054 76.3091 25.1499C76.3091 26.2855 76.1614 27.1722 75.8658 27.81C75.5702 28.4477 75.0569 28.8911 74.3258 29.14C74.9325 29.2644 75.368 29.5678 75.6325 30.05C75.9125 30.5322 76.0525 31.1856 76.0525 32.01L76.0058 39.5935H72.0857V31.7534C72.0857 31.1933 71.9768 30.8356 71.7591 30.68C71.5413 30.5244 71.1446 30.4467 70.569 30.4467V39.5935H66.509V19.5498ZM71.5491 26.9699C72.1091 26.9699 72.3891 26.3633 72.3891 25.1499C72.3891 24.621 72.3657 24.2243 72.3191 23.9599C72.2724 23.6954 72.1869 23.5165 72.0624 23.4232C71.938 23.3143 71.7591 23.2599 71.5257 23.2599H70.5924V26.9699H71.5491Z" fill="white"/>
<path d="M82.3424 39.7802C80.5846 39.7802 79.3246 39.2979 78.5623 38.3335C77.8001 37.369 77.419 35.9301 77.419 34.0167V27.1566C77.419 25.5855 77.8701 24.3877 78.7723 23.5632C79.6746 22.7388 80.9346 22.3265 82.5524 22.3265C85.8347 22.3265 87.4758 23.9366 87.4758 27.1566V28.3933C87.4758 29.6378 87.4603 30.6489 87.4291 31.4267H81.5024V34.7401C81.5024 35.3312 81.5646 35.7979 81.689 36.1401C81.8135 36.4668 82.0779 36.6301 82.4824 36.6301C82.7935 36.6301 83.0113 36.5368 83.1357 36.3501C83.2757 36.1634 83.3535 35.9534 83.3691 35.7201C83.4002 35.4712 83.4157 35.1134 83.4157 34.6467V32.99H87.4758V33.9701C87.4758 35.9612 87.0869 37.4312 86.3091 38.3801C85.5469 39.3135 84.2246 39.7802 82.3424 39.7802ZM83.4157 29.3966V27.2033C83.4157 25.9744 83.1124 25.3599 82.5057 25.3599C81.8213 25.3599 81.479 25.9744 81.479 27.2033V29.3966H83.4157Z" fill="white"/>
<path d="M92.0558 39.7802C90.7335 39.7802 89.8235 39.3446 89.3257 38.4735C88.8435 37.5868 88.6024 36.3268 88.6024 34.6934C88.6024 33.3556 88.7735 32.3289 89.1157 31.6134C89.4735 30.8978 89.9635 30.3767 90.5858 30.05C91.208 29.7078 92.1569 29.3344 93.4325 28.93L94.5525 28.5566V26.8066C94.5525 26.3555 94.4592 26.0133 94.2725 25.7799C94.1014 25.531 93.8914 25.4066 93.6425 25.4066C93.4247 25.4066 93.2303 25.5077 93.0591 25.7099C92.9036 25.9121 92.8258 26.1844 92.8258 26.5266V27.5533H88.8591V26.9933C88.8591 25.3132 89.248 24.1154 90.0257 23.3999C90.8191 22.6843 92.1025 22.3265 93.8758 22.3265C95.2914 22.3265 96.4425 22.6999 97.3292 23.4465C98.2159 24.1777 98.6592 25.2199 98.6592 26.5733V39.5935H94.5992V37.5635C94.3969 38.2635 94.0703 38.8079 93.6191 39.1968C93.1836 39.5857 92.6625 39.7802 92.0558 39.7802ZM93.6658 36.6068C93.9769 36.6068 94.1947 36.4823 94.3192 36.2334C94.4592 35.969 94.5292 35.6501 94.5292 35.2768V30.5167C93.9225 30.75 93.4714 31.0456 93.1758 31.4034C92.8958 31.7611 92.7558 32.2589 92.7558 32.8967V35.0901C92.7558 36.1012 93.0591 36.6068 93.6658 36.6068Z" fill="white"/>
<path d="M105.365 39.7802C103.499 39.7802 102.153 39.3057 101.329 38.3568C100.504 37.4079 100.092 35.9534 100.092 33.9934V28.72C100.092 27.2422 100.247 26.0444 100.559 25.1266C100.885 24.1932 101.422 23.4932 102.169 23.0265C102.931 22.5599 103.981 22.3265 105.319 22.3265C106.781 22.3265 107.971 22.7076 108.889 23.4699C109.807 24.2321 110.265 25.2977 110.265 26.6666V29.28H106.112V26.8766C106.112 26.4255 106.05 26.0833 105.925 25.8499C105.801 25.601 105.56 25.4766 105.202 25.4766C104.533 25.4766 104.199 25.951 104.199 26.8999V35.1834C104.199 35.5723 104.276 35.9068 104.432 36.1868C104.603 36.4512 104.852 36.5834 105.179 36.5834C105.505 36.5834 105.746 36.4512 105.902 36.1868C106.073 35.9223 106.151 35.5801 106.135 35.1601L106.112 32.29H110.265V35.2768C110.265 36.6768 109.807 37.7812 108.889 38.5901C107.986 39.3835 106.812 39.7802 105.365 39.7802Z" fill="white"/>
<path d="M115.217 39.7802C114.144 39.7802 113.405 39.5546 113 39.1035C112.596 38.6524 112.394 37.929 112.394 36.9335V26.2699H111.25V23.1665H112.394V19.5498H116.36V23.1665H117.527V26.2699H116.36V35.8601C116.36 36.1557 116.384 36.3734 116.43 36.5134C116.477 36.6534 116.602 36.7234 116.804 36.7234C116.959 36.7234 117.107 36.7157 117.247 36.7001C117.387 36.6846 117.48 36.6768 117.527 36.6768V39.4768C117.294 39.5391 116.952 39.6013 116.5 39.6635C116.065 39.7413 115.637 39.7802 115.217 39.7802Z" fill="white"/>
<path d="M13.8391 10.1903C13.8391 11.3888 13.1687 12.3234 11.8278 12.994C10.4869 13.6647 8.66718 14 6.36856 14C3.87838 14 1.96286 13.792 0.621994 13.3759V11.8483C1.48398 12.0843 2.42258 12.2706 3.43781 12.4072C4.45304 12.5438 5.45868 12.6121 6.45475 12.6121C8.08295 12.6121 9.30888 12.4134 10.1326 12.016C10.9562 11.6123 11.3681 11.0534 11.3681 10.3393C11.3681 9.86738 11.2196 9.48237 10.9227 9.1843C10.6354 8.88002 10.1469 8.60058 9.45733 8.34597C8.77732 8.09137 7.73815 7.80262 6.33982 7.47971C4.38599 7.02639 2.98766 6.48924 2.14483 5.86826C1.31158 5.24728 0.894956 4.4369 0.894956 3.43713C0.894956 2.38767 1.50313 1.55245 2.71949 0.93147C3.93584 0.31049 5.54488 0 7.5466 0C9.63452 0 11.5548 0.248392 13.3075 0.745176L12.5461 2.12375C10.8126 1.65181 9.12691 1.41584 7.48914 1.41584C6.19616 1.41584 5.18572 1.59592 4.45782 1.95609C3.72993 2.31626 3.36598 2.81615 3.36598 3.45576C3.36598 3.9277 3.50006 4.31581 3.76824 4.62009C4.03641 4.91816 4.48656 5.1945 5.11868 5.4491C5.76038 5.69749 6.73729 5.97383 8.04943 6.27811C10.2523 6.78731 11.7655 7.33378 12.5892 7.9175C13.4225 8.50122 13.8391 9.25882 13.8391 10.1903Z" fill="white"/>
<path d="M29.8433 13.8137H18.1346V0.195609H29.8433V1.60213H20.5769V5.98935H29.283V7.38656H20.5769V12.3979H29.8433V13.8137Z" fill="white"/>
<path d="M43.8074 13.8137L36.6817 1.74185H36.5667C36.7008 2.69816 36.7679 3.83455 36.7679 5.15103V13.8137H34.5123V0.195609H38.1901L44.8418 11.4291H44.9567L51.6658 0.195609H55.3149V13.8137H52.8726V5.03926C52.8726 4.03327 52.9397 2.94034 53.0737 1.76048H52.9588L45.7756 13.8137H43.8074Z" fill="white"/>
<path d="M74.2929 13.8137L71.6782 9.48237H63.2595L60.6736 13.8137H58.2025L66.5063 0.139721H68.5607L76.8214 13.8137H74.2929ZM70.9168 8.05722L68.4745 3.83766C68.1585 3.30362 67.8328 2.64848 67.4976 1.87226C67.2869 2.4684 66.9852 3.12353 66.5925 3.83766L64.1215 8.05722H70.9168Z" fill="white"/>
<path d="M96.1155 13.8137H93.3284L81.8496 2.38456H81.7347C81.888 3.72588 81.9646 4.95542 81.9646 6.07319V13.8137H79.7091V0.195609H82.4674L93.9174 11.5782H94.0324C94.0132 11.4105 93.9701 10.8734 93.9031 9.96673C93.836 9.05389 93.8121 8.40186 93.8312 8.01065V0.195609H96.1155V13.8137Z" fill="white"/>
<path d="M115.094 13.8137L112.479 9.48237H104.06L101.474 13.8137H99.0031L107.307 0.139721H109.361L117.622 13.8137H115.094ZM111.717 8.05722L109.275 3.83766C108.959 3.30362 108.633 2.64848 108.298 1.87226C108.087 2.4684 107.786 3.12353 107.393 3.83766L104.922 8.05722H111.717Z" fill="white"/>
<path d="M153.872 15.6206C153.648 15.0993 153.143 14.7568 152.597 14.7568H143.394L146.419 1.84479C146.573 1.17462 146.279 0.474663 145.691 0.161915C145.117 -0.150833 144.402 -0.0019052 143.982 0.534234L126.331 22.784C125.981 23.2308 125.897 23.8414 126.135 24.3775C126.373 24.9136 126.863 25.2413 127.41 25.2413H136.613L133.588 38.1533C133.433 38.8235 133.728 39.5234 134.316 39.8362C134.512 39.9404 134.736 40 134.946 40C135.353 40 135.745 39.8213 136.011 39.4788L153.662 17.2141C154.026 16.7673 154.096 16.1567 153.872 15.6206Z" fill="#FF8400"/>
</svg>
